<?xml version="1.0" encoding="UTF-8"?>
<svg id="Layer_1" data-name="Layer 1" xmlns="http://www.w3.org/2000/svg" viewBox="0 0 487.65 128">
  <defs>
    <style>
      .cls-1 {
        fill: #3f96b4;
      }

      .cls-2 {
        fill: #333;
      }
    </style>
  </defs>
  <path class="cls-1" d="M83.14,79.96l-27.71,15.96-27.71-15.96v-31.92l55.43,31.92ZM110.85,95.92h0s0,0,0,0l-55.43,31.92L0,95.92v-63.83L55.43.17l55.43,31.92h0v63.83ZM98.39,88.74l-15.25-8.78v-31.92l-27.71-15.96-27.71,15.96-15.25-8.78h-.02v49.47l42.99,24.75,42.96-24.74Z"/>
  <g>
    <path class="cls-2" d="M171.85,25.41h17.55l1.2,9.6c2.1-2.6,4.47-4.75,7.12-6.45,2.65-1.7,5.55-2.85,8.7-3.45,3.15-.6,6.53-.5,10.12.3v17.85c-2.6-.8-5.4-1-8.4-.6-3,.4-5.77,1.45-8.32,3.15-2.55,1.7-4.65,4.15-6.3,7.35-1.65,3.2-2.47,7.15-2.47,11.85v35.4h-19.2V25.41Z"/>
    <path class="cls-2" d="M265.45,100.41l-1.5-9.15c-2.5,3.2-5.33,5.68-8.48,7.43-3.15,1.75-7.38,2.62-12.67,2.62-5,0-9.38-.88-13.12-2.62-3.75-1.75-6.67-4.2-8.78-7.35-2.1-3.15-3.15-6.87-3.15-11.17,0-6.3,2.27-11.52,6.83-15.67,4.55-4.15,11.42-6.77,20.62-7.88l18.75-1.95v-5.4c0-2.2-.95-4.17-2.85-5.92-1.9-1.75-4.9-2.62-9-2.62-3.6,0-6.73.88-9.38,2.62-2.65,1.75-4.42,4.38-5.33,7.88l-16.65-6c2.2-6.7,6.1-11.85,11.7-15.45,5.6-3.6,12.45-5.4,20.55-5.4,9.9,0,17.4,2.5,22.5,7.5,5.1,5,7.65,11.5,7.65,19.5v49.05h-17.7ZM263.95,68.01l-16.2,1.8c-3.4.5-5.92,1.53-7.58,3.07-1.65,1.55-2.47,3.38-2.47,5.48s.87,4.03,2.62,5.47c1.75,1.45,4.12,2.17,7.12,2.17,3.5,0,6.47-.62,8.92-1.88,2.45-1.25,4.32-3.15,5.62-5.7,1.3-2.55,1.95-5.67,1.95-9.38v-1.05Z"/>
    <path class="cls-2" d="M357.2,100.41h-17.7l-1.35-7.8c-2.4,2.8-5.33,4.98-8.78,6.52-3.45,1.55-7.12,2.33-11.02,2.33-5.8,0-10.8-1.25-15-3.75-4.2-2.5-7.42-6.12-9.67-10.88-2.25-4.75-3.38-10.62-3.38-17.62V25.41h19.2v41.25c0,5.8,1.12,10.18,3.38,13.12,2.25,2.95,5.78,4.42,10.58,4.42s8.15-1.5,10.65-4.5c2.5-3,3.75-7.35,3.75-13.05V25.41h19.35v75Z"/>
    <path class="cls-2" d="M364,25.41h19.35v29.25h4.65l24.9-29.25h25.05l-32.85,37.2,33,37.8h-25.2l-24.9-29.7h-4.65v29.7h-19.35V25.41Z"/>
    <path class="cls-2" d="M441.7,25.41h17.55l1.2,9.6c2.1-2.6,4.47-4.75,7.12-6.45,2.65-1.7,5.55-2.85,8.7-3.45,3.15-.6,6.53-.5,10.12.3v17.85c-2.6-.8-5.4-1-8.4-.6-3,.4-5.77,1.45-8.32,3.15-2.55,1.7-4.65,4.15-6.3,7.35-1.65,3.2-2.47,7.15-2.47,11.85v35.4h-19.2V25.41Z"/>
  </g>
</svg>